<?xml version="1.0" encoding="UTF-8"?>
<!DOCTYPE svg PUBLIC "-//W3C//DTD SVG 1.1//EN" "http://www.w3.org/Graphics/SVG/1.1/DTD/svg11.dtd">
<!-- Creator: CorelDRAW X7 -->
<svg xmlns="http://www.w3.org/2000/svg" xml:space="preserve" width="8.5512mm" height="8.5512mm" version="1.1" style="shape-rendering:geometricPrecision; text-rendering:geometricPrecision; image-rendering:optimizeQuality; fill-rule:evenodd; clip-rule:evenodd"
viewBox="0 0 855 855"
 xmlns:xlink="http://www.w3.org/1999/xlink">
 <defs>
  <style type="text/css">
   <![CDATA[
    .str0 {stroke:white;stroke-width:13.23}
    .fil0 {fill:#FEFEFE}
   ]]>
  </style>
 </defs>
 <g id="Camada_x0020_1">
  <metadata id="CorelCorpID_0Corel-Layer"/>
  <g id="icon-chat.svg">
   <path class="fil0" d="M427 849c-55,0 -106,-9 -156,-29 -34,15 -70,22 -108,22 -46,0 -92,-12 -133,-35 -12,-7 -17,-23 -8,-37 3,-7 9,-11 16,-13 27,-13 51,-31 71,-54 -65,-76 -102,-172 -102,-275 0,-17 2,-35 4,-51l0 0c2,-10 4,-21 5,-33 37,-197 211,-338 411,-338 231,0 421,189 421,421 0,233 -188,422 -421,422zm-271 -172c-63,-68 -97,-156 -97,-249 0,-15 2,-30 3,-44l0 0c0,-9 2,-19 4,-28 33,-172 186,-295 361,-295 203,0 368,164 368,367 0,204 -165,368 -368,368 -49,0 -95,-9 -139,-27 -8,-6 -18,-8 -27,-3 -2,1 -4,2 -6,3 -28,14 -59,20 -90,20 -20,0 -41,-2 -60,-8 21,-16 41,-36 57,-58 1,0 1,-1 1,-1 4,-4 6,-8 7,-12 4,-11 0,-23 -10,-30 -2,-1 -3,-2 -4,-3z"/>
   <path class="fil0" d="M271 820l2 -6 -2 -1 -3 1 3 6zm-241 -13l-3 6 0 0 3 -6zm-8 -37l5 3 0 0 -5 -3zm16 -13l2 7 0 0 1 -1 -3 -6zm71 -54l5 5 4 -5 -4 -4 -5 4zm-98 -326l-7 -1 0 0 7 1zm0 0l-7 -1 0 0 7 1zm5 -33l-6 -2 0 1 6 1zm140 333l-5 5 1 1 1 0 3 -6zm-94 -293l7 1 0 0 0 -1 -7 0zm4 -28l6 1 0 0 -6 -1zm222 413l-4 5 1 1 1 0 2 -6zm-27 -3l2 6 1 0 0 0 -3 -6zm-6 3l3 6 0 0 1 -1 -4 -5zm-150 12l-4 -5 -11 8 13 3 2 -6zm57 -58l-4 -5 -1 0 0 1 5 4zm1 -1l-5 -5 0 0 5 5zm7 -12l-6 -3 0 1 0 0 6 2zm-10 -30l-4 5 0 0 4 -5zm108 146c51,21 103,30 159,30l0 -13c-54,0 -105,-9 -154,-29l-5 12zm-105 23c39,0 76,-7 111,-23l-6 -12c-33,15 -68,22 -105,22l0 13zm-136 -36c42,23 89,36 136,36l0 -13c-45,0 -90,-12 -129,-35l-7 12zm-11 -47c-11,18 -4,38 11,47l7 -12c-10,-5 -14,-17 -7,-28l-11 -7zm21 -15c-9,2 -17,8 -21,16l11 6c3,-5 8,-8 13,-9l-3 -13zm4 12c28,-13 53,-32 73,-55l-10 -9c-19,22 -42,40 -69,52l6 12zm-40 -335c0,105 37,202 103,280l10 -9c-64,-75 -100,-169 -100,-271l-13 0zm3 -52c-1,16 -3,34 -3,52l13 0c0,-17 2,-34 4,-50l-14 -2zm0 0l0 0 14 2 0 0 -14 -2zm6 -33c-2,12 -4,22 -6,33l14 2c1,-10 3,-21 5,-34l-13 -1zm417 -344c-203,0 -379,144 -417,343l13 3c36,-193 207,-333 404,-333l0 -13zm427 428c0,-236 -192,-428 -427,-428l0 13c228,0 414,187 414,415l13 0zm-427 429c237,0 427,-192 427,-429l-13 0c0,230 -185,416 -414,416l0 13zm-266 -183c-62,-67 -96,-154 -96,-245l-13 0c0,94 35,185 99,254l10 -9zm-96 -245c0,-15 2,-29 4,-43l-13 -2c-2,15 -4,29 -4,45l13 0zm4 -43l0 0 -13 -2 0 0 13 2zm0 -1c0,-8 2,-18 3,-27l-13 -2c-1,9 -3,20 -3,29l13 0zm3 -27c33,-168 183,-290 355,-290l0 -13c-179,0 -333,126 -368,301l13 2zm355 -290c199,0 361,162 361,361l13 0c0,-207 -167,-374 -374,-374l0 13zm361 361c0,200 -162,362 -361,362l0 13c207,0 374,-167 374,-375l-13 0zm-361 362c-48,0 -93,-10 -137,-27l-4 12c44,18 91,28 141,28l0 -13zm-135 -26c-9,-8 -23,-10 -34,-4l6 12c6,-4 14,-3 20,2l8 -10zm-33 -4c-3,1 -5,2 -8,4l8 10c1,-1 3,-1 4,-2l-4 -12zm-7 3c-27,14 -56,20 -87,20l0 13c32,0 63,-7 93,-21l-6 -12zm-87 20c-20,0 -40,-3 -58,-8l-4 12c20,6 41,9 62,9l0 -13zm-8 -64c-16,22 -35,41 -56,57l8 10c22,-16 42,-36 59,-59l-11 -8zm10 9c0,-1 0,-1 1,-1l-10 -10c0,1 0,1 0,1l9 10zm1 -1c4,-5 7,-10 9,-16l-13 -3c-1,3 -3,7 -6,9l10 10zm-12 -42c8,6 11,15 8,22l13 5c4,-14 -1,-29 -14,-38l-7 11zm-3 -2c1,1 2,1 3,2l7 -11c-1,-1 -2,-2 -4,-2l-6 11z"/>
   <path class="fil0 str0" d="M427 476c27,0 49,-22 49,-49 0,-28 -22,-50 -49,-50 -28,0 -50,22 -50,50 0,27 22,49 50,49z"/>
   <path class="fil0 str0" d="M616 476c27,0 49,-22 49,-49 0,-28 -22,-50 -49,-50 -27,0 -50,22 -50,50 0,27 23,49 50,49z"/>
   <path class="fil0 str0" d="M236 476c27,0 49,-22 49,-49 0,-28 -22,-50 -49,-50 -28,0 -50,22 -50,50 0,27 22,49 50,49z"/>
  </g>
 </g>
</svg>
