<?xml version="1.0" encoding="UTF-8"?>
<!DOCTYPE svg PUBLIC "-//W3C//DTD SVG 1.1//EN" "http://www.w3.org/Graphics/SVG/1.1/DTD/svg11.dtd">
<!-- Creator: CorelDRAW X7 -->
<svg xmlns="http://www.w3.org/2000/svg" xml:space="preserve" width="8.5512mm" height="8.5512mm" version="1.1" style="shape-rendering:geometricPrecision; text-rendering:geometricPrecision; image-rendering:optimizeQuality; fill-rule:evenodd; clip-rule:evenodd"
viewBox="0 0 855 855"
 xmlns:xlink="http://www.w3.org/1999/xlink">
 <defs>
  <style type="text/css">
   <![CDATA[
    .fil0 {fill:#3C4F5C}
    .fil6 {fill:#463729}
    .fil3 {fill:#4A312C}
    .fil1 {fill:#5199E4}
    .fil10 {fill:#5E4A36}
    .fil4 {fill:#724133}
    .fil11 {fill:#838DA1}
    .fil7 {fill:#C59973}
    .fil5 {fill:#D4A67B}
    .fil2 {fill:#ECB889}
    .fil9 {fill:#FF4F6D}
    .fil8 {fill:white}
   ]]>
  </style>
 </defs>
 <g id="Camada_x0020_1">
  <metadata id="CorelCorpID_0Corel-Layer"/>
  <g id="_2528880999744">
   <path class="fil0" d="M136 710c18,28 70,67 102,86 6,3 11,5 17,9 18,10 57,24 78,29 27,7 54,11 82,12l25 0c28,-1 55,-5 83,-12 43,-11 73,-26 110,-48 25,-15 72,-53 86,-76 -13,-30 -48,-63 -71,-80 -25,-19 -68,-38 -109,-40l-4 0 1 4c-1,31 -16,45 -36,56 -20,11 -45,18 -72,18 -50,-1 -110,-26 -105,-76 -1,-5 1,-1 -4,-3 -1,0 -3,0 -4,0 -33,2 -80,21 -106,39 -24,17 -60,51 -73,82z"/>
   <path class="fil1" d="M608 269c11,0 21,10 25,18 6,12 4,26 4,40 0,32 -1,54 -29,60 -6,74 -49,128 -104,148l0 20 0 33 29 0 6 2c41,2 84,21 109,40 23,17 58,50 71,80 17,-12 52,-76 62,-101 17,-42 26,-85 28,-130l0 -31c-1,-25 -5,-51 -11,-76 -7,-30 -17,-55 -30,-80 -13,-26 -26,-46 -43,-68 -14,-17 -30,-34 -47,-48 -14,-12 -58,-47 -76,-50 5,25 9,41 10,69 0,14 0,26 -1,39 -2,11 -2,25 -3,35z"/>
   <path class="fil1" d="M136 710c13,-31 49,-65 73,-82 26,-18 73,-37 106,-39 1,0 3,0 4,0 5,2 3,-2 4,3l1 -3 27 -1 0 -33 0 -21c-54,-19 -98,-75 -104,-147 -27,-6 -29,-27 -29,-58 0,-14 -2,-29 4,-41 4,-9 12,-17 24,-19 -8,-18 -7,-53 -5,-75 1,-27 6,-44 12,-68 -21,4 -75,48 -95,68 -69,69 -107,159 -112,252l0 36c2,42 11,84 27,125 10,25 45,90 63,103z"/>
   <path class="fil2" d="M339 294c24,-9 35,28 13,35 -13,4 -22,-3 -25,-11 -4,-13 3,-21 12,-24zm136 31c-2,-5 0,-7 3,-11 24,-31 66,-10 65,6 -7,1 -17,-10 -37,-8 -21,2 -26,14 -31,13zm79 -56c-14,-17 -41,-23 -64,-20 -4,0 -11,2 -14,1 -3,-1 -6,-6 -2,-10 7,-9 47,-3 58,0 9,3 17,8 23,12 12,10 13,13 11,20 -7,2 -7,2 -12,-3zm-265 3c-2,-6 -2,-7 3,-12 29,-30 83,-27 89,-20 4,5 1,9 -3,10 -3,1 -11,-1 -15,-1 -10,-1 -20,0 -30,2 -34,8 -29,26 -44,21zm-39 -3c18,73 -13,141 58,172 44,18 10,-46 80,-52l6 -2c2,0 5,0 7,0 -6,-4 -10,-7 -12,-18l77 0c-2,10 -6,14 -12,18l13 2c69,6 36,69 79,52 57,-23 50,-75 52,-131 1,-17 4,-26 6,-41 -8,-4 -9,-24 -10,-32 -2,-13 -3,-25 -5,-37 -10,-45 -30,-53 -55,-74 -6,-6 -13,-21 -21,-22 -1,0 -70,5 -81,5 -27,0 -58,1 -86,-1 -10,0 -12,-2 -18,3 -8,7 -16,20 -31,33 -36,31 -37,107 -47,125z"/>
   <path class="fil3" d="M253 126c-6,24 -11,41 -12,68 -2,22 -3,57 5,75l1 0 3 0c10,-18 11,-94 47,-125 15,-13 23,-26 31,-33 6,-5 8,-3 18,-3 28,2 59,1 86,1 11,0 80,-5 81,-5 8,1 15,16 21,22 25,21 45,29 55,74 2,12 3,24 5,37 1,8 2,28 10,32l4 0c1,-10 1,-24 3,-35 1,-13 1,-25 1,-39 -1,-28 -5,-44 -10,-69 -5,-14 -3,-10 -11,-26 -12,-24 -54,-48 -55,-54 0,-8 11,-23 1,-24 -2,-1 -21,7 -27,8 2,-8 4,-6 2,-14 -9,0 -21,8 -27,11 2,-8 5,-6 5,-17 -12,0 -25,12 -71,17 -27,3 -54,4 -76,12 -28,10 -59,33 -75,57 -7,10 -10,18 -15,30z"/>
   <path class="fil4" d="M350 461c-2,-19 10,-38 22,-43 9,-3 20,-2 30,-2 9,0 25,-5 28,-5 31,8 45,1 57,9 28,18 20,67 -13,83 -26,12 -21,-15 -50,-12 -22,1 -22,26 -47,9 -9,-6 -25,-23 -27,-39zm-103 -74c6,72 50,128 104,147 50,20 103,19 153,1 55,-20 98,-74 104,-148l0 -118 -4 0c-2,15 -5,24 -6,41 -2,56 5,108 -52,131 -43,17 -10,-46 -79,-52 -34,0 -34,4 -39,4 -4,0 -11,-3 -18,-4 -7,0 -15,0 -22,0 -70,6 -36,70 -80,52 -71,-31 -40,-99 -58,-172l-3 0 0 118z"/>
   <path class="fil2" d="M323 592c-5,50 55,75 105,76 27,0 52,-7 72,-18 20,-11 35,-25 36,-56l-3 -6 -29 0 0 -33c-63,23 -90,23 -153,0l0 33 -27 1 -1 3z"/>
   <path class="fil2" d="M380 423l98 0 8 2c5,15 -10,38 -19,42 -15,21 -64,20 -79,0 -7,-3 -13,-13 -17,-23 -5,-13 -7,-21 9,-21zm-30 38c2,16 18,33 27,39 25,17 25,-8 47,-9 29,-3 24,24 50,12 33,-16 41,-65 13,-83 -12,-8 -26,-1 -57,-9 -3,0 -19,5 -28,5 -10,0 -21,-1 -30,2 -12,5 -24,24 -22,43z"/>
   <path class="fil5" d="M351 555c63,23 90,23 153,0l0 -20c-50,18 -103,19 -153,-1l0 21z"/>
   <path class="fil2" d="M247 387l0 -118 -1 0c-12,2 -20,10 -24,19 -6,12 -4,27 -4,41 0,31 2,52 29,58z"/>
   <path class="fil2" d="M608 387c28,-6 29,-28 29,-60 0,-14 2,-28 -4,-40 -4,-8 -14,-18 -25,-18l0 118z"/>
   <path class="fil6" d="M388 467c4,-4 9,-7 16,-8 13,-3 16,2 24,2 7,0 10,-4 21,-3 8,1 14,5 18,9 9,-4 24,-27 19,-42l-8 -2c-2,22 -29,16 -49,16 -20,0 -47,6 -49,-16 -16,0 -14,8 -9,21 4,10 10,20 17,23z"/>
   <path class="fil7" d="M388 389c7,0 15,0 22,0 7,1 14,4 18,4 5,0 5,-4 39,-4l-13 -2c6,-4 10,-8 12,-18l-77 0c2,11 6,14 12,18 -2,0 -5,0 -7,0l-6 2z"/>
   <path class="fil8" d="M478 423l-98 0c2,22 29,16 49,16 20,0 47,6 49,-16z"/>
   <path class="fil9" d="M388 467c15,20 64,21 79,0 -4,-4 -10,-8 -18,-9 -11,-1 -14,3 -21,3 -8,0 -11,-5 -24,-2 -7,1 -12,4 -16,8z"/>
   <path class="fil10" d="M566 272c2,-7 1,-10 -11,-20 -6,-4 -14,-9 -23,-12 -11,-3 -51,-9 -58,0 -4,4 -1,9 2,10 3,1 10,-1 14,-1 23,-3 50,3 64,20 5,5 5,5 12,3z"/>
   <path class="fil10" d="M289 272c15,5 10,-13 44,-21 10,-2 20,-3 30,-2 4,0 12,2 15,1 4,-1 7,-5 3,-10 -6,-7 -60,-10 -89,20 -5,5 -5,6 -3,12z"/>
   <path class="fil10" d="M339 294c-9,3 -16,11 -12,24 3,8 12,15 25,11 22,-7 11,-44 -13,-35z"/>
   <path class="fil10" d="M475 325c5,1 10,-11 31,-13 20,-2 30,9 37,8 1,-16 -41,-37 -65,-6 -3,4 -5,6 -3,11z"/>
   <polygon class="fil11" points="536,594 535,590 539,590 533,588 "/>
  </g>
 </g>
</svg>
