<?xml version="1.0" encoding="UTF-8"?>
<!DOCTYPE svg PUBLIC "-//W3C//DTD SVG 1.1//EN" "http://www.w3.org/Graphics/SVG/1.1/DTD/svg11.dtd">
<!-- Creator: CorelDRAW X7 -->
<svg xmlns="http://www.w3.org/2000/svg" xml:space="preserve" width="8.5512mm" height="8.5512mm" version="1.1" style="shape-rendering:geometricPrecision; text-rendering:geometricPrecision; image-rendering:optimizeQuality; fill-rule:evenodd; clip-rule:evenodd"
viewBox="0 0 855 855"
 xmlns:xlink="http://www.w3.org/1999/xlink">
 <defs>
  <style type="text/css">
   <![CDATA[
    .fil0 {fill:#25D366}
   ]]>
  </style>
 </defs>
 <g id="Camada_x0020_1">
  <metadata id="CorelCorpID_0Corel-Layer"/>
  <path class="fil0" d="M317 631c10,-11 18,-18 28,-28 5,-6 8,-9 14,-14 8,-9 5,-8 15,-12 3,-8 23,-28 30,-30 5,-11 13,-19 24,-25 7,5 8,6 14,12 8,8 7,6 12,16l12 8c4,4 7,7 11,11 8,9 14,15 22,23 15,15 28,28 44,43l173 174c15,14 27,28 59,26 25,-2 44,-17 52,-33 30,-56 -24,-91 -45,-113l-174 -174c-17,-16 -77,-72 -85,-87 6,-13 132,-137 151,-155 10,-10 18,-17 28,-27 6,-6 9,-9 14,-15 8,-8 6,-7 16,-12 2,-9 24,-27 31,-34 38,-39 82,-68 70,-115 -7,-32 -38,-56 -76,-49 -29,5 -55,39 -71,56 -18,17 -244,248 -258,256 -18,-10 -74,-72 -93,-91 -31,-30 -59,-58 -89,-89 -22,-21 -115,-123 -141,-130 -51,-15 -99,32 -82,84 12,36 289,285 309,321 -6,12 -131,134 -152,154 -20,21 -145,142 -152,155 -23,41 3,85 39,96 49,13 78,-30 97,-50l153 -152z"/>
 </g>
</svg>
